<svg xmlns="http://www.w3.org/2000/svg" width="32" height="32" viewBox="0 0 32 32">
  <defs>
    <linearGradient id="seaBlue" x1="0%" y1="0%" x2="100%" y2="100%">
      <stop offset="0%" style="stop-color:#0c4a6e;stop-opacity:1" />
      <stop offset="50%" style="stop-color:#075985;stop-opacity:1" />
      <stop offset="100%" style="stop-color:#0369a1;stop-opacity:1" />
    </linearGradient>
  </defs>
  
  <!-- Background circle with glass effect -->
  <circle cx="16" cy="16" r="15" fill="url(#seaBlue)" opacity="0.9"/>
  <circle cx="16" cy="16" r="15" fill="none" stroke="rgba(255,255,255,0.3)" stroke-width="1"/>
  
  <!-- Grid pattern representing weeks -->
  <g fill="rgba(255,255,255,0.8)">
    <!-- Row 1 -->
    <rect x="6" y="8" width="2" height="2" rx="0.5"/>
    <rect x="9" y="8" width="2" height="2" rx="0.5"/>
    <rect x="12" y="8" width="2" height="2" rx="0.5"/>
    <rect x="15" y="8" width="2" height="2" rx="0.5"/>
    <rect x="18" y="8" width="2" height="2" rx="0.5"/>
    <rect x="21" y="8" width="2" height="2" rx="0.5"/>
    <rect x="24" y="8" width="2" height="2" rx="0.5"/>
    
    <!-- Row 2 -->
    <rect x="6" y="11" width="2" height="2" rx="0.5"/>
    <rect x="9" y="11" width="2" height="2" rx="0.5"/>
    <rect x="12" y="11" width="2" height="2" rx="0.5"/>
    <rect x="15" y="11" width="2" height="2" rx="0.5"/>
    <rect x="18" y="11" width="2" height="2" rx="0.5" fill="rgba(255,255,255,0.4)"/>
    <rect x="21" y="11" width="2" height="2" rx="0.5" fill="rgba(255,255,255,0.4)"/>
    <rect x="24" y="11" width="2" height="2" rx="0.5" fill="rgba(255,255,255,0.4)"/>
    
    <!-- Row 3 -->
    <rect x="6" y="14" width="2" height="2" rx="0.5"/>
    <rect x="9" y="14" width="2" height="2" rx="0.5"/>
    <rect x="12" y="14" width="2" height="2" rx="0.5"/>
    <rect x="15" y="14" width="2" height="2" rx="0.5" fill="rgba(255,255,255,0.4)"/>
    <rect x="18" y="14" width="2" height="2" rx="0.5" fill="rgba(255,255,255,0.4)"/>
    <rect x="21" y="14" width="2" height="2" rx="0.5" fill="rgba(255,255,255,0.4)"/>
    <rect x="24" y="14" width="2" height="2" rx="0.5" fill="rgba(255,255,255,0.4)"/>
    
    <!-- Row 4 -->
    <rect x="6" y="17" width="2" height="2" rx="0.5"/>
    <rect x="9" y="17" width="2" height="2" rx="0.5"/>
    <rect x="12" y="17" width="2" height="2" rx="0.5" fill="rgba(255,255,255,0.4)"/>
    <rect x="15" y="17" width="2" height="2" rx="0.5" fill="rgba(255,255,255,0.4)"/>
    <rect x="18" y="17" width="2" height="2" rx="0.5" fill="rgba(255,255,255,0.4)"/>
    <rect x="21" y="17" width="2" height="2" rx="0.5" fill="rgba(255,255,255,0.4)"/>
    <rect x="24" y="17" width="2" height="2" rx="0.5" fill="rgba(255,255,255,0.4)"/>
    
    <!-- Row 5 -->
    <rect x="6" y="20" width="2" height="2" rx="0.5" fill="rgba(255,255,255,0.4)"/>
    <rect x="9" y="20" width="2" height="2" rx="0.5" fill="rgba(255,255,255,0.4)"/>
    <rect x="12" y="20" width="2" height="2" rx="0.5" fill="rgba(255,255,255,0.4)"/>
    <rect x="15" y="20" width="2" height="2" rx="0.5" fill="rgba(255,255,255,0.4)"/>
    <rect x="18" y="20" width="2" height="2" rx="0.5" fill="rgba(255,255,255,0.4)"/>
    <rect x="21" y="20" width="2" height="2" rx="0.5" fill="rgba(255,255,255,0.4)"/>
    <rect x="24" y="20" width="2" height="2" rx="0.5" fill="rgba(255,255,255,0.4)"/>
  </g>
  
  <!-- Subtle glow effect -->
  <circle cx="16" cy="16" r="12" fill="none" stroke="rgba(255,255,255,0.1)" stroke-width="2"/>
</svg>
